<?xml version="1.0" encoding="utf-8"?>
<!-- Generator: Adobe Illustrator 28.3.0, SVG Export Plug-In . SVG Version: 6.00 Build 0)  -->
<svg version="1.1" id="Layer_1" xmlns="http://www.w3.org/2000/svg" xmlns:xlink="http://www.w3.org/1999/xlink" x="0px" y="0px"
	 viewBox="0 0 800 800" style="enable-background:new 0 0 800 800;" xml:space="preserve">
<style type="text/css">
	.st0{display:none;}
	.st1{fill:#D4AE55;stroke:#D4AE55;stroke-width:66.6667;stroke-linecap:round;stroke-linejoin:round;stroke-miterlimit:133.3333;}
</style>
<g id="SVGRepo_bgCarrier" class="st0">
</g>
<g id="SVGRepo_tracerCarrier" class="st0">
</g>
<g id="SVGRepo_iconCarrier">
	<path class="st1" d="M375.6,147c7.7-17.3,11.6-26,17-28.6c4.7-2.3,10.1-2.3,14.8,0c5.4,2.7,9.2,11.3,17,28.6l61.5,137.9
		c2.3,5.1,3.4,7.7,5.2,9.6c1.6,1.7,3.5,3.1,5.6,4.1c2.4,1.1,5.2,1.4,10.8,2l150.1,15.8c18.8,2,28.3,3,32.5,7.3
		c3.6,3.7,5.3,8.9,4.6,14.1c-0.9,5.9-7.9,12.3-22,25L560.4,463.8c-4.2,3.8-6.2,5.6-7.6,7.9c-1.2,2-1.9,4.3-2.1,6.6
		c-0.3,2.6,0.3,5.4,1.5,10.8l31.3,147.7c3.9,18.5,5.9,27.8,3.1,33.1c-2.4,4.6-6.8,7.8-12,8.7c-5.9,1-14.1-3.7-30.5-13.2l-130.8-75.4
		c-4.9-2.8-7.3-4.2-9.9-4.7c-2.3-0.5-4.6-0.5-6.9,0c-2.6,0.6-5,1.9-9.9,4.7l-130.8,75.4c-16.4,9.5-24.6,14.2-30.5,13.2
		c-5.1-0.9-9.6-4.1-12-8.7c-2.8-5.3-0.8-14.6,3.1-33.1l31.3-147.7c1.2-5.5,1.7-8.2,1.5-10.8c-0.2-2.3-1-4.6-2.1-6.6
		c-1.3-2.3-3.4-4.2-7.6-7.9L127.4,362.8c-14.1-12.7-21.1-19-22-25c-0.8-5.2,0.9-10.4,4.6-14.1c4.2-4.3,13.6-5.3,32.5-7.3l150.1-15.8
		c5.6-0.6,8.4-0.9,10.8-2c2.1-0.9,4-2.3,5.6-4.1c1.8-2,2.9-4.5,5.2-9.6L375.6,147z"/>
</g>
</svg>
